<svg xmlns="http://www.w3.org/2000/svg" width="109" height="99" fill="none">
  <path fill="#222222"
    d="M72.936 11.01H19.101a2.679 2.679 0 0 1 0-5.358h53.835a2.68 2.68 0 0 1 0 5.358ZM83.738 27.17H72.892a2.679 2.679 0 0 1 0-5.358h10.846a2.68 2.68 0 0 1 0 5.357ZM57.333 27.213H18.881a2.679 2.679 0 0 1 0-5.358h38.452a2.68 2.68 0 0 1 0 5.358ZM94.54 43.372H18.882a2.678 2.678 0 1 1 0-5.357H94.54a2.68 2.68 0 0 1 0 5.357ZM56.733 59.575H18.88a2.678 2.678 0 0 1 0-5.357h37.852a2.68 2.68 0 0 1 0 5.357ZM89.14 59.575H72.89a2.678 2.678 0 0 1 0-5.357H89.14a2.68 2.68 0 0 1 0 5.357ZM45.93 75.779H18.882a2.679 2.679 0 0 1 0-5.358h27.05a2.68 2.68 0 0 1 0 5.358ZM83.738 75.779H62.09a2.678 2.678 0 1 1 0-5.358h21.648a2.68 2.68 0 0 1 0 5.358ZM62.134 92.026H18.882a2.679 2.679 0 0 1 0-5.359h43.252a2.68 2.68 0 0 1 0 5.359ZM9.198 77.022c.444.476.66 1.11.66 1.741 0 .626-.216 1.26-.66 1.74-.887.96-2.32.96-3.202 0L.66 74.707a2.593 2.593 0 0 1-.66-1.74 2.573 2.573 0 0 1 .832-1.914c.024-.043.06-.08.094-.116l5.33-5.798a2.174 2.174 0 0 1 1.602-.724c.581 0 1.162.242 1.601.724.887.96.887 2.518 0 3.482l-3.996 4.345 3.735 4.056ZM98.823 60.819c-.444.476-.66 1.11-.66 1.741 0 .626.216 1.259.66 1.74.887.96 2.32.96 3.201 0l5.336-5.796c.439-.482.66-1.114.66-1.741 0-.632-.221-1.264-.66-1.741-.049-.054-.104-.108-.157-.162-.006 0-.011-.005-.016-.01-.023-.043-.059-.08-.092-.116l-5.331-5.798a2.173 2.173 0 0 0-1.601-.724c-.581 0-1.163.242-1.602.724-.886.959-.886 2.518 0 3.482l3.996 4.345-3.734 4.056ZM9.198 12.814c.444.477.66 1.109.66 1.742 0 .626-.216 1.259-.66 1.74-.887.959-2.32.959-3.202 0L.66 10.5A2.593 2.593 0 0 1 0 8.76a2.576 2.576 0 0 1 .818-1.904c.005 0 .01-.005.014-.01.024-.043.06-.08.094-.118L6.256.931A2.177 2.177 0 0 1 7.858.208a2.16 2.16 0 0 1 1.601.723c.887.96.887 2.519 0 3.483L5.463 8.759l3.735 4.055ZM71.818 93.83a2.549 2.549 0 0 0-.66 1.742c0 .625.216 1.259.66 1.74.886.959 2.32.959 3.201 0l5.336-5.796c.439-.483.66-1.115.66-1.741 0-.634-.221-1.264-.66-1.743-.05-.053-.104-.107-.157-.16-.006 0-.011-.005-.016-.01-.023-.043-.059-.08-.092-.118l-5.331-5.797a2.177 2.177 0 0 0-1.601-.723 2.16 2.16 0 0 0-1.602.723c-.886.96-.886 2.518 0 3.482l3.996 4.346-3.734 4.054Z" />
</svg>